<?xml version="1.0" standalone="no"?>
<!DOCTYPE svg PUBLIC "-//W3C//DTD SVG 20010904//EN"
 "http://www.w3.org/TR/2001/REC-SVG-20010904/DTD/svg10.dtd">
<svg version="1.0" xmlns="http://www.w3.org/2000/svg"
 width="273.000000pt" height="332.000000pt" viewBox="0 0 273.000000 332.000000"
 preserveAspectRatio="xMidYMid meet">

<g transform="translate(0.000000,332.000000) scale(0.100000,-0.100000)"
fill="#595959" stroke="none">
<path d="M1458 3228 c-67 -18 -207 -161 -332 -341 -91 -131 -266 -454 -266
-491 0 -4 -17 -32 -39 -64 -64 -94 -89 -153 -157 -370 -122 -388 -121 -386
-263 -486 -133 -93 -170 -155 -156 -263 14 -116 115 -246 247 -318 45 -26 64
-30 129 -30 74 0 77 1 134 44 l58 44 18 -24 c10 -13 19 -28 19 -34 0 -18 74
-131 132 -201 142 -174 366 -313 531 -330 142 -14 216 65 217 234 0 28 5 52
10 52 6 0 10 -4 10 -9 0 -13 88 -119 143 -172 88 -86 189 -109 307 -69 168 57
300 203 300 332 0 57 -28 103 -128 209 -49 51 -102 119 -118 149 l-29 55 -6
265 c-6 232 -9 272 -27 320 -77 210 -212 413 -370 560 l-85 79 24 98 c21 84
24 122 24 268 0 178 -7 219 -55 349 -49 131 -141 179 -272 144z m137 -70 c33
-15 56 -54 90 -153 24 -69 29 -100 33 -225 7 -241 -29 -397 -153 -655 -57
-118 -67 -165 -67 -315 0 -179 20 -343 78 -640 58 -295 77 -430 78 -553 l1
-129 -34 -30 c-31 -28 -38 -30 -95 -26 -74 5 -192 54 -294 122 -83 56 -214
188 -264 267 -44 71 -88 155 -88 171 0 7 40 52 89 100 141 139 213 227 297
364 7 11 14 16 18 13 3 -3 13 -43 22 -90 8 -46 33 -157 55 -247 21 -90 52
-240 68 -334 16 -94 34 -175 39 -180 6 -6 18 -8 28 -6 16 3 19 13 18 58 -1 74
-37 266 -89 480 -29 119 -58 263 -80 384 -12 72 -12 90 1 142 8 32 21 145 29
249 16 209 29 273 105 495 70 209 88 274 100 375 18 151 -8 254 -53 217 -12
-10 -14 -33 -9 -122 3 -72 1 -110 -5 -110 -6 0 -13 11 -17 23 -17 69 -83 101
-149 73 -20 -8 -96 -72 -170 -145 -74 -72 -137 -131 -141 -131 -17 0 165 283
245 382 67 82 146 157 184 174 37 17 96 18 130 2z m-165 -369 c11 -27 11 -37
-7 -78 -33 -79 -129 -214 -165 -234 -42 -22 -88 -92 -122 -182 -40 -107 -73
-162 -148 -251 -68 -82 -76 -105 -40 -119 11 -4 32 10 67 47 84 88 139 174
169 263 27 80 69 157 99 179 22 16 32 18 54 10 25 -8 28 -15 31 -57 2 -27 -8
-92 -23 -152 -18 -76 -29 -155 -36 -276 -19 -326 -79 -467 -298 -708 -82 -91
-211 -207 -299 -271 -85 -61 -193 -29 -307 92 -48 51 -68 80 -80 119 -33 113
-17 153 95 234 172 124 182 139 260 385 125 398 133 418 216 531 80 109 248
289 409 439 75 70 106 77 125 29z m39 -219 c-17 -58 -33 -108 -36 -112 -5 -10
-53 21 -53 34 0 5 23 46 50 91 28 45 50 88 50 96 0 10 3 12 10 5 6 -6 -2 -47
-21 -114z m339 -358 c126 -125 259 -334 318 -503 25 -71 26 -85 29 -309 1
-129 6 -248 10 -265 18 -70 68 -147 155 -239 114 -121 126 -146 103 -216 -49
-152 -294 -276 -419 -212 -71 36 -185 173 -263 314 -33 60 -46 97 -56 165 -8
48 -23 135 -35 193 -103 536 -116 820 -40 920 18 24 18 24 40 5 38 -34 57 -86
90 -240 33 -149 69 -243 107 -277 17 -16 22 -16 39 -4 18 14 18 16 -14 82 -22
43 -45 121 -67 219 -37 166 -68 242 -116 277 -34 25 -33 36 3 120 24 57 28 56
116 -30z"/>
</g>
</svg>
